HIERARCHY
ROOT Hips
{
	OFFSET 0.000000 0.000000 0.000000
	CHANNELS 6 Xposition Yposition Zposition Zrotation Yrotation Xrotation 
	JOINT LHipJoint
	{
		OFFSET 0.000000 0.000000 0.000000
		CHANNELS 3 Zrotation Yrotation Xrotation
		JOINT LeftUpLeg
		{
			OFFSET 1.363060 -1.794630 0.839290
			CHANNELS 3 Zrotation Yrotation Xrotation
			JOINT LeftLeg
			{
				OFFSET 2.448110 -6.726130 0.000000
				CHANNELS 3 Zrotation Yrotation Xrotation
				JOINT LeftFoot
				{
					OFFSET 2.562200 -7.039590 0.000000
					CHANNELS 3 Zrotation Yrotation Xrotation
					JOINT LeftToeBase
					{
						OFFSET 0.157640 -0.433110 2.322550
						CHANNELS 3 Zrotation Yrotation Xrotation
						End Site
						{
							OFFSET 0.000000 0.000000 0.000000
						}
					}
				}
			}
		}
	}
	JOINT RHipJoint
	{
		OFFSET 0.000000 0.000000 0.000000
		CHANNELS 3 Zrotation Yrotation Xrotation
		JOINT RightUpLeg
		{
			OFFSET -1.305520 -1.794630 0.839290
			CHANNELS 3 Zrotation Yrotation Xrotation
			JOINT RightLeg
			{
				OFFSET -2.542530 -6.985550 0.000000
				CHANNELS 3 Zrotation Yrotation Xrotation
				JOINT RightFoot
				{
					OFFSET -2.568260 -7.056230 0.000000
					CHANNELS 3 Zrotation Yrotation Xrotation
					JOINT RightToeBase
					{
						OFFSET -0.164730 -0.452590 2.363150
						CHANNELS 3 Zrotation Yrotation Xrotation
						End Site
						{
							OFFSET 0.000000 0.000000 0.000000
						}
					}
				}
			}
		}
	}
}
MOTION
Frames: 13
Frame Time: 0.008333
-19.591942 16.333090 -0.452209 10.244971 80.890898 51.795407 -8.693290 -1.730979 4.677145 -1.741258 -12.077595 -76.668807 0.599391 3.215659 61.619912 3.321573 12.644514 -15.701922 -1.065199 -0.000000 -16.676900 11.183961 -2.741323 0.940923 1.284470 -0.424349 -13.893913 1.012203 -0.408594 12.476698 -0.279933 -0.518542 15.655370 -0.403700 0.000000 -80.512700
-19.312699 16.402056 -0.445072 12.663621 81.163371 54.686419 -8.380453 -1.570907 5.079458 -1.697555 -13.002845 -77.199972 0.404702 2.914584 58.511041 3.424000 12.660391 -15.603134 -0.986500 0.000000 -16.685500 11.495944 -2.845415 0.871117 0.766822 -1.292369 -12.995590 0.880083 -0.410805 10.832339 -0.441311 -1.184782 19.039705 -0.646899 0.000000 -76.865700
-19.034424 16.460692 -0.437238 14.997199 81.414909 57.506838 -8.066703 -1.375789 5.470933 -1.756609 -13.808844 -77.765063 0.209253 2.621765 55.364614 3.543477 12.778012 -15.344550 -0.865800 0.000001 -17.093200 11.809317 -2.916932 0.797146 0.272197 -2.139720 -12.209340 0.771019 -0.403000 9.559100 -0.605058 -1.935174 21.462623 -0.975600 -0.000000 -72.609500
-18.758114 16.508593 -0.429312 17.094537 81.653805 60.091604 -7.770553 -1.152037 5.837877 -1.925232 -14.461330 -78.333534 0.005180 2.343952 52.198127 3.656511 12.924985 -14.868590 -0.681600 0.000000 -17.995600 12.105921 -2.966485 0.721314 -0.170132 -2.894167 -11.474496 0.682219 -0.384993 8.591778 -0.760003 -2.812383 22.930876 -1.400200 -0.000000 -68.323700
-18.484295 16.545463 -0.421936 18.858634 81.890414 62.325151 -7.507979 -0.910041 6.164489 -2.219417 -14.938237 -78.864099 -0.215923 2.087059 49.043719 3.738885 13.033251 -14.138494 -0.421400 -0.000000 -19.402701 12.372085 -3.004694 0.645385 -0.541565 -3.499632 -10.736093 0.610362 -0.359218 7.875872 -0.900021 -3.813079 23.510621 -1.899900 -0.000001 -64.423700
-18.212962 16.571001 -0.414712 20.363433 82.114592 64.263609 -7.276754 -0.653262 6.439735 -2.687439 -15.257551 -79.309871 -0.463694 1.853004 45.935225 3.774121 13.064684 -13.144401 -0.084600 0.000000 -21.213000 12.617053 -3.032757 0.568477 -0.875678 -3.969093 -9.988669 0.552023 -0.331685 7.414983 -1.019182 -4.838243 23.284026 -2.394100 0.000000 -61.210700
-17.944513 16.585388 -0.409211 21.450404 82.359433 65.717146 -7.099854 -0.406779 6.639870 -3.309604 -15.385269 -79.630371 -0.738663 1.652985 42.969859 3.739642 12.950395 -11.919097 0.309000 0.000000 -23.328100 12.813224 -3.067841 0.493967 -1.114884 -4.229323 -9.136384 0.506028 -0.301014 7.107702 -1.121817 -5.884896 22.414486 -2.858600 0.000000 -58.623500
-17.678318 16.588373 -0.405260 22.221453 82.616604 66.768031 -6.969460 -0.177101 6.756663 -4.111818 -15.349284 -79.799869 -1.039677 1.491976 40.235391 3.631604 12.676508 -10.521662 0.727200 -0.000000 -25.607700 12.971928 -3.110004 0.418459 -1.291012 -4.341998 -8.196236 0.475106 -0.272879 6.985631 -1.201125 -6.800174 21.001732 -3.193000 0.000001 -56.525200
-17.414191 16.580116 -0.403244 22.705664 82.886228 67.434951 -6.882620 0.024396 6.781286 -5.079712 -15.167607 -79.815205 -1.356889 1.377227 37.841205 3.454861 12.237395 -9.054296 1.124100 -0.000000 -27.813700 13.091408 -3.163894 0.347323 -1.406708 -4.299884 -7.153159 0.454080 -0.249351 7.005532 -1.262430 -7.556138 19.256445 -3.385200 -0.000000 -55.137300
-17.151646 16.560681 -0.403568 22.952485 83.171514 67.756438 -6.834421 0.189846 6.712198 -6.182955 -14.860049 -79.690489 -1.673738 1.316498 35.904912 3.222718 11.639812 -7.635968 1.453701 -0.000000 -29.838299 13.172654 -3.233463 0.278398 -1.464107 -4.151754 -6.019054 0.446334 -0.234440 7.173082 -1.301206 -8.075693 17.321345 -3.411901 -0.000000 -54.285700
-16.889670 16.530155 -0.406374 23.025047 83.470500 67.798192 -6.816627 0.316894 6.557109 -7.375242 -14.455469 -79.457761 -1.970011 1.314103 34.523426 2.958320 10.914324 -6.396217 1.679400 0.000000 -31.582700 13.219584 -3.320253 0.211356 -1.472687 -3.944674 -4.826965 0.453110 -0.232397 7.501774 -1.313668 -8.314210 15.341055 -3.282600 0.000001 -53.888500
-16.627848 16.488965 -0.412027 22.926626 83.789533 67.574139 -6.826453 0.400777 6.326000 -8.586126 -13.972023 -79.161159 -2.223607 1.372223 33.775920 2.687026 10.096864 -5.466903 1.778200 -0.000000 -32.954800 13.228142 -3.428435 0.150405 -1.419841 -3.681202 -3.592597 0.470580 -0.245630 7.967212 -1.303527 -8.311662 13.485494 -3.055500 -0.000000 -54.067100
-16.365378 16.437467 -0.420533 22.679856 84.126511 67.122580 -6.858004 0.441834 6.036551 -9.748185 -13.437642 -78.842404 -2.416083 1.486975 33.699524 2.435866 9.244284 -4.956232 1.749100 0.000000 -33.911900 13.201183 -3.557141 0.095549 -1.310449 -3.394391 -2.362495 0.497510 -0.277723 8.592467 -1.270589 -8.081578 11.848366 -2.768100 0.000000 -54.751700
